<mxfile host="app.diagrams.net" modified="2022-02-09T22:37:20.516Z" agent="5.0 (Windows NT 10.0; Win64; x64) AppleWebKit/537.36 (KHTML, like Gecko) Chrome/98.0.4758.82 Safari/537.36" etag="gORZnN1yyCOcQteyfxVm" version="16.5.5" type="github">
  <diagram id="C5RBs43oDa-KdzZeNtuy" name="Page-1">
    <mxGraphModel dx="1422" dy="832" grid="1" gridSize="10" guides="1" tooltips="1" connect="1" arrows="1" fold="1" page="1" pageScale="1" pageWidth="827" pageHeight="1169" math="0" shadow="0">
      <root>
        <mxCell id="WIyWlLk6GJQsqaUBKTNV-0" />
        <mxCell id="WIyWlLk6GJQsqaUBKTNV-1" parent="WIyWlLk6GJQsqaUBKTNV-0" />
        <mxCell id="5BcaOqx7kz7zb052mj5V-5" value="" style="edgeStyle=orthogonalEdgeStyle;rounded=0;orthogonalLoop=1;jettySize=auto;html=1;entryX=0.5;entryY=0;entryDx=0;entryDy=0;" parent="WIyWlLk6GJQsqaUBKTNV-1" source="WIyWlLk6GJQsqaUBKTNV-3" target="5BcaOqx7kz7zb052mj5V-6" edge="1">
          <mxGeometry relative="1" as="geometry">
            <mxPoint x="285" y="190" as="targetPoint" />
          </mxGeometry>
        </mxCell>
        <mxCell id="WIyWlLk6GJQsqaUBKTNV-3" value="Inicio" style="rounded=1;whiteSpace=wrap;html=1;fontSize=12;glass=0;strokeWidth=1;shadow=0;" parent="WIyWlLk6GJQsqaUBKTNV-1" vertex="1">
          <mxGeometry x="225" y="110" width="120" height="40" as="geometry" />
        </mxCell>
        <mxCell id="5BcaOqx7kz7zb052mj5V-8" value="" style="edgeStyle=orthogonalEdgeStyle;rounded=0;orthogonalLoop=1;jettySize=auto;html=1;" parent="WIyWlLk6GJQsqaUBKTNV-1" source="5BcaOqx7kz7zb052mj5V-6" target="5BcaOqx7kz7zb052mj5V-7" edge="1">
          <mxGeometry relative="1" as="geometry" />
        </mxCell>
        <mxCell id="5BcaOqx7kz7zb052mj5V-6" value="Error_Esperado = y&lt;br&gt;Error_Obtenido = x&lt;br&gt;Tiempo = t" style="shape=parallelogram;perimeter=parallelogramPerimeter;whiteSpace=wrap;html=1;fixedSize=1;" parent="WIyWlLk6GJQsqaUBKTNV-1" vertex="1">
          <mxGeometry x="210" y="190" width="150" height="50" as="geometry" />
        </mxCell>
        <mxCell id="5BcaOqx7kz7zb052mj5V-22" value="" style="edgeStyle=orthogonalEdgeStyle;rounded=0;orthogonalLoop=1;jettySize=auto;html=1;" parent="WIyWlLk6GJQsqaUBKTNV-1" source="5BcaOqx7kz7zb052mj5V-7" target="5BcaOqx7kz7zb052mj5V-21" edge="1">
          <mxGeometry relative="1" as="geometry" />
        </mxCell>
        <mxCell id="5BcaOqx7kz7zb052mj5V-7" value="&lt;font style=&quot;vertical-align: inherit&quot;&gt;&lt;font style=&quot;vertical-align: inherit&quot;&gt;Kp, Ki, Ka&lt;/font&gt;&lt;/font&gt;" style="shape=parallelogram;perimeter=parallelogramPerimeter;whiteSpace=wrap;html=1;fixedSize=1;" parent="WIyWlLk6GJQsqaUBKTNV-1" vertex="1">
          <mxGeometry x="210" y="280" width="150" height="50" as="geometry" />
        </mxCell>
        <mxCell id="5BcaOqx7kz7zb052mj5V-14" value="" style="edgeStyle=orthogonalEdgeStyle;rounded=0;orthogonalLoop=1;jettySize=auto;html=1;" parent="WIyWlLk6GJQsqaUBKTNV-1" source="5BcaOqx7kz7zb052mj5V-11" target="5BcaOqx7kz7zb052mj5V-13" edge="1">
          <mxGeometry relative="1" as="geometry" />
        </mxCell>
        <mxCell id="5BcaOqx7kz7zb052mj5V-11" value="Kp = f(x) " style="whiteSpace=wrap;html=1;" parent="WIyWlLk6GJQsqaUBKTNV-1" vertex="1">
          <mxGeometry x="385" y="405" width="120" height="60" as="geometry" />
        </mxCell>
        <mxCell id="5BcaOqx7kz7zb052mj5V-16" value="" style="edgeStyle=orthogonalEdgeStyle;rounded=0;orthogonalLoop=1;jettySize=auto;html=1;" parent="WIyWlLk6GJQsqaUBKTNV-1" source="5BcaOqx7kz7zb052mj5V-13" target="5BcaOqx7kz7zb052mj5V-15" edge="1">
          <mxGeometry relative="1" as="geometry" />
        </mxCell>
        <mxCell id="5BcaOqx7kz7zb052mj5V-13" value="Ki = f(x)" style="whiteSpace=wrap;html=1;" parent="WIyWlLk6GJQsqaUBKTNV-1" vertex="1">
          <mxGeometry x="385" y="510" width="120" height="60" as="geometry" />
        </mxCell>
        <mxCell id="5BcaOqx7kz7zb052mj5V-25" value="" style="edgeStyle=orthogonalEdgeStyle;rounded=0;orthogonalLoop=1;jettySize=auto;html=1;" parent="WIyWlLk6GJQsqaUBKTNV-1" source="5BcaOqx7kz7zb052mj5V-15" target="5BcaOqx7kz7zb052mj5V-24" edge="1">
          <mxGeometry relative="1" as="geometry" />
        </mxCell>
        <mxCell id="5BcaOqx7kz7zb052mj5V-15" value="Kd = f(x)" style="whiteSpace=wrap;html=1;" parent="WIyWlLk6GJQsqaUBKTNV-1" vertex="1">
          <mxGeometry x="385" y="610" width="120" height="60" as="geometry" />
        </mxCell>
        <mxCell id="5BcaOqx7kz7zb052mj5V-18" value="(Presente)" style="edgeLabel;html=1;align=center;verticalAlign=middle;resizable=0;points=[];" parent="WIyWlLk6GJQsqaUBKTNV-1" vertex="1" connectable="0">
          <mxGeometry x="374.99931034482745" y="440" as="geometry">
            <mxPoint x="166" y="-6" as="offset" />
          </mxGeometry>
        </mxCell>
        <mxCell id="5BcaOqx7kz7zb052mj5V-19" value="(Pasado)" style="edgeLabel;html=1;align=center;verticalAlign=middle;resizable=0;points=[];" parent="WIyWlLk6GJQsqaUBKTNV-1" vertex="1" connectable="0">
          <mxGeometry x="374.99931034482745" y="540" as="geometry">
            <mxPoint x="166" y="-6" as="offset" />
          </mxGeometry>
        </mxCell>
        <mxCell id="5BcaOqx7kz7zb052mj5V-20" value="(Futuro)" style="edgeLabel;html=1;align=center;verticalAlign=middle;resizable=0;points=[];" parent="WIyWlLk6GJQsqaUBKTNV-1" vertex="1" connectable="0">
          <mxGeometry x="374.99931034482745" y="640" as="geometry">
            <mxPoint x="166" y="-6" as="offset" />
          </mxGeometry>
        </mxCell>
        <mxCell id="5BcaOqx7kz7zb052mj5V-23" value="" style="edgeStyle=orthogonalEdgeStyle;rounded=0;orthogonalLoop=1;jettySize=auto;html=1;" parent="WIyWlLk6GJQsqaUBKTNV-1" source="5BcaOqx7kz7zb052mj5V-21" target="5BcaOqx7kz7zb052mj5V-11" edge="1">
          <mxGeometry relative="1" as="geometry" />
        </mxCell>
        <mxCell id="5BcaOqx7kz7zb052mj5V-21" value="Ejecutar AcciÃ³n" style="whiteSpace=wrap;html=1;" parent="WIyWlLk6GJQsqaUBKTNV-1" vertex="1">
          <mxGeometry x="225" y="405" width="120" height="60" as="geometry" />
        </mxCell>
        <mxCell id="5BcaOqx7kz7zb052mj5V-27" value="" style="edgeStyle=orthogonalEdgeStyle;rounded=0;orthogonalLoop=1;jettySize=auto;html=1;" parent="WIyWlLk6GJQsqaUBKTNV-1" source="5BcaOqx7kz7zb052mj5V-24" target="5BcaOqx7kz7zb052mj5V-26" edge="1">
          <mxGeometry relative="1" as="geometry" />
        </mxCell>
        <mxCell id="5BcaOqx7kz7zb052mj5V-24" value="x = Kp + Ki + Kd" style="whiteSpace=wrap;html=1;" parent="WIyWlLk6GJQsqaUBKTNV-1" vertex="1">
          <mxGeometry x="385" y="700" width="120" height="60" as="geometry" />
        </mxCell>
        <mxCell id="5BcaOqx7kz7zb052mj5V-29" value="Si" style="edgeStyle=orthogonalEdgeStyle;rounded=0;orthogonalLoop=1;jettySize=auto;html=1;" parent="WIyWlLk6GJQsqaUBKTNV-1" source="5BcaOqx7kz7zb052mj5V-26" target="5BcaOqx7kz7zb052mj5V-28" edge="1">
          <mxGeometry relative="1" as="geometry" />
        </mxCell>
        <mxCell id="5BcaOqx7kz7zb052mj5V-33" value="No" style="edgeStyle=orthogonalEdgeStyle;rounded=0;orthogonalLoop=1;jettySize=auto;html=1;" parent="WIyWlLk6GJQsqaUBKTNV-1" source="5BcaOqx7kz7zb052mj5V-26" target="5BcaOqx7kz7zb052mj5V-32" edge="1">
          <mxGeometry relative="1" as="geometry" />
        </mxCell>
        <mxCell id="5BcaOqx7kz7zb052mj5V-26" value="x &amp;gt;= 4" style="rhombus;whiteSpace=wrap;html=1;" parent="WIyWlLk6GJQsqaUBKTNV-1" vertex="1">
          <mxGeometry x="405" y="790" width="80" height="80" as="geometry" />
        </mxCell>
        <mxCell id="5BcaOqx7kz7zb052mj5V-31" value="" style="edgeStyle=orthogonalEdgeStyle;rounded=0;orthogonalLoop=1;jettySize=auto;html=1;" parent="WIyWlLk6GJQsqaUBKTNV-1" source="5BcaOqx7kz7zb052mj5V-28" target="5BcaOqx7kz7zb052mj5V-30" edge="1">
          <mxGeometry relative="1" as="geometry" />
        </mxCell>
        <mxCell id="5BcaOqx7kz7zb052mj5V-28" value="Ejecutar Actuador" style="whiteSpace=wrap;html=1;" parent="WIyWlLk6GJQsqaUBKTNV-1" vertex="1">
          <mxGeometry x="545" y="800" width="120" height="60" as="geometry" />
        </mxCell>
        <mxCell id="5BcaOqx7kz7zb052mj5V-30" value="FIN" style="rounded=1;whiteSpace=wrap;html=1;" parent="WIyWlLk6GJQsqaUBKTNV-1" vertex="1">
          <mxGeometry x="520" y="900" width="120" height="40" as="geometry" />
        </mxCell>
        <mxCell id="5BcaOqx7kz7zb052mj5V-35" value="" style="edgeStyle=orthogonalEdgeStyle;rounded=0;orthogonalLoop=1;jettySize=auto;html=1;entryX=0.5;entryY=1;entryDx=0;entryDy=0;" parent="WIyWlLk6GJQsqaUBKTNV-1" source="5BcaOqx7kz7zb052mj5V-32" target="5BcaOqx7kz7zb052mj5V-21" edge="1">
          <mxGeometry relative="1" as="geometry">
            <mxPoint x="310" y="700" as="targetPoint" />
          </mxGeometry>
        </mxCell>
        <mxCell id="5BcaOqx7kz7zb052mj5V-32" value="X" style="shape=document;whiteSpace=wrap;html=1;boundedLbl=1;rotation=0;" parent="WIyWlLk6GJQsqaUBKTNV-1" vertex="1">
          <mxGeometry x="240" y="805" width="90" height="50" as="geometry" />
        </mxCell>
      </root>
    </mxGraphModel>
  </diagram>
</mxfile>
